# xmcd
#
# Track frame offsets: 
#        150
#        17420
#        37238
#        52943
#        73395
#        92895
#        122192
#        142992
#        158412
#        176252
#        188330
#        211360
#        237808
#        258000
#        278837
#        303100
#        321790
#        341323
#
# Disc length: 4788 seconds
#
# Revision: 1
# Processed by: cddbd v1.5.2PL0 Copyright (c) Steve Scherf et al.
# Submitted via: ExactAudioCopy v1.1
#
DISCID=ea12b212
DTITLE=Pinetop Perkins - Akella Presents - Greatests Bluesmen - vol. 1
DTITLE=7  CD2
DYEAR=2017
DGENRE=Blues
TTITLE0=Got My Mojo Workin
TTITLE1=Sit In The Easy Chair
TTITLE2=Every Day I Have the Blues
TTITLE3=Anna Lee
TTITLE4=Big Fat Mama
TTITLE5=The Grinder Man
TTITLE6=Some Day Baby
TTITLE7=Keep On Drinkin
TTITLE8=High Heel Sneakers
TTITLE9=Blues For Olivia
TTITLE10=Kidney Stewl
TTITLE11=I Woke Up  This Morning
TTITLE12=Take It Easy Baby
TTITLE13=Murmur Low
TTITLE14=Look On Yonder Wall
TTITLE15=Come Back Baby
TTITLE16=Take It Easy Baby
TTITLE17=I Almost Lost My Mind
EXTD=
EXTT0=
EXTT1=
EXTT2=
EXTT3=
EXTT4=
EXTT5=
EXTT6=
EXTT7=
EXTT8=
EXTT9=
EXTT10=
EXTT11=
EXTT12=
EXTT13=
EXTT14=
EXTT15=
EXTT16=
EXTT17=
PLAYORDER=
